<?xml version="1.0" standalone="no"?>
<!DOCTYPE svg PUBLIC "-//W3C//DTD SVG 20010904//EN"
 "http://www.w3.org/TR/2001/REC-SVG-20010904/DTD/svg10.dtd">
<svg version="1.0" xmlns="http://www.w3.org/2000/svg"
 width="20480pt" height="20480pt" viewBox="0 0 20480 20480"
 preserveAspectRatio="xMidYMid meet">

<g transform="translate(0,20480) scale(0.4,-0.4)"
fill="#e1e0f9" stroke="none">
  <path d="M24540 44029 c-4192 -51 -8205 -424 -11400 -1059 -3565 -709 -5844
-1738 -6529 -2950 -187 -330 -253 -712 -181 -1050 11 -52 51 -250 89 -440 38
-190 95 -455 126 -589 40 -175 103 -527 220 -1235 943 -5692 1412 -8452 1981
-11651 1407 -7919 2413 -12516 3009 -13760 108 -226 255 -417 534 -696 406
-405 871 -727 1536 -1064 1287 -652 3059 -1171 5308 -1555 1531 -261 3297
-453 4962 -540 975 -51 1877 -52 2840 -5 2299 114 4697 422 6620 851 2330 520
4041 1228 5044 2088 335 287 614 612 745 868 603 1182 1622 5956 3080 14438
453 2631 905 5362 1636 9880 329 2032 429 2643 450 2745 22 106 110 470 144
601 37 138 48 265 43 489 -5 223 -14 265 -75 375 -19 36 -60 112 -90 170 -111
215 -231 377 -427 579 -973 1000 -3084 1842 -6145 2451 -2490 495 -5479 832
-8680 980 -1614 74 -3172 100 -4840 79z m1980 -1199 c3358 -41 6346 -257 9125
-660 2679 -389 5090 -989 6495 -1617 788 -353 1284 -730 1415 -1078 l23 -60
-43 -253 c-41 -247 -42 -253 -80 -308 -301 -436 -1155 -897 -2460 -1327 -3016
-993 -7543 -1636 -12725 -1807 -922 -30 -1288 -35 -2670 -35 -1565 0 -2096 10
-3340 60 -3518 143 -6827 523 -9403 1080 -2742 592 -4568 1308 -5086 1995
l-57 76 -43 253 c-26 152 -41 266 -38 288 8 48 69 164 127 243 27 36 95 111
152 166 634 617 2195 1217 4586 1764 3183 727 7526 1166 12062 1219 943 11
1099 11 1960 1z m-18332 -5699 c1895 -1044 5371 -1851 9902 -2300 3442 -341
7358 -438 11100 -275 3005 130 5847 430 8249 870 2339 428 4107 955 5379 1604
116 59 212 105 212 100 0 -15 -184 -550 -282 -820 -803 -2207 -1944 -4282
-3302 -6005 -471 -598 -903 -1084 -1450 -1630 -439 -439 -732 -707 -1156
-1061 -1535 -1280 -3265 -2267 -5147 -2938 l-212 -75 -93 70 c-201 150 -413
229 -665 245 -122 8 -247 -7 -395 -47 -1164 -312 -2149 -494 -3288 -608 -879
-89 -1599 -119 -2205 -91 -1379 62 -2615 232 -3835 528 l-275 67 -190 -1
c-174 0 -198 -2 -288 -27 -182 -49 -350 -135 -481 -246 l-68 -58 -177 57
c-2059 667 -3944 1718 -5554 3097 -327 281 -569 505 -908 843 -639 636 -1113
1182 -1654 1905 -706 943 -1285 1887 -1844 3005 -589 1179 -1069 2405 -1441
3675 -22 77 -43 148 -46 158 -3 9 -2 17 1 17 4 0 54 -26 113 -59z m34247
-4736 c-36 -220 -136 -825 -221 -1345 -1861 -11347 -3078 -17630 -3682 -19009
-113 -258 -385 -585 -700 -839 -887 -718 -2497 -1337 -4702 -1806 -2001 -426
-4471 -713 -6770 -787 -400 -13 -1361 -7 -1740 11 -3179 148 -6108 589 -8270
1245 -1549 470 -2658 1046 -3203 1663 -112 127 -265 333 -310 419 -535 1022
-1655 6489 -3337 16288 -281 1638 -660 3879 -656 3882 2 2 29 -45 61 -105 32
-59 118 -210 190 -337 2065 -3601 4935 -6220 8482 -7741 483 -207 889 -360
1428 -539 l370 -123 38 -104 c115 -317 356 -570 664 -698 188 -78 1106 -280
1798 -394 1388 -230 2927 -345 3990 -297 1781 79 3336 310 4889 726 295 79
386 110 491 171 268 152 452 376 554 673 l36 103 180 63 c2157 748 4191 1932
5915 3444 587 515 1239 1168 1764 1766 1024 1167 1971 2540 2757 4002 24 45
45 79 47 75 1 -5 -27 -188 -63 -407z"/>
</g>
</svg>
